# AST/ASF file generated using VICON BodyLanguage
# -----------------------------------------------
:version 1.10
:name VICON
:units
  mass 1.0
  length 0.45
  angle deg
:documentation
   .ast/.asf automatically generated from VICON data using
   VICON BodyBuilder and BodyLanguage model FoxedUp or BRILLIANT.MOD
:root
   order TX TY TZ RX RY RZ
   axis XYZ
   position 0 0 0  
   orientation 0 0 0 
:bonedata
  begin
     id 1 
     name lhipjoint
     direction 0.714689 -0.624256 0.315473 
     length 2.45343 
     axis 0 0 0  XYZ
  end
  begin
     id 2 
     name lfemur
     direction 0.34202 -0.939693 0  
     length 6.59069  
     axis 0 0 20  XYZ
    dof rx ry rz
    limits (-160.0 20.0)
           (-70.0 70.0)
           (-60.0 70.0)
  end
  begin
     id 3 
     name ltibia
     direction 0.34202 -0.939693 0   
     length 6.73476   
     axis 0 0 20   XYZ
    dof rx
    limits (-10.0 170.0)
  end
  begin
     id 4 
     name lfoot
     direction 0.0718085 -0.197292 0.977711   
     length 1.52607   
     axis -90 7.62852e-016 20   XYZ
    dof rx rz
    limits (-45.0 90.0)
           (-70.0 20.0)
  end
  begin
     id 5 
     name ltoes
     direction 1.53553e-011 -4.22024e-011 1   
     length 0.777832   
     axis -90 7.62852e-016 20   XYZ
    dof rx
    limits (-90.0 20.0)
  end
  begin
     id 6 
     name rhipjoint
     direction -0.727419 -0.612432 0.309497   
     length 2.50079  
     axis 0 0 0  XYZ 
  end
  begin
     id 7 
     name rfemur
     direction -0.34202 -0.939693 0   
     length 6.51665   
     axis 0 0 -20   XYZ
    dof rx ry rz
    limits (-160.0 20.0)
           (-70.0 70.0)
           (-70.0 60.0)
  end
  begin
     id 8 
     name rtibia
     direction -0.34202 -0.939693 0   
     length 6.48919   
     axis 0 0 -20   XYZ
    dof rx
    limits (-10.0 170.0)
 end
 begin
     id 9 
     name rfoot
     direction -0.112205 -0.308282 0.944655   
     length 1.68717  
     axis -90 -7.62852e-016 -20   XYZ
    dof rx rz
    limits (-45.0 90.0)
           (-20.0 70.0)
  end
  begin
     id 10 
     name rtoes
     direction -1.53583e-011 -4.21993e-011 1   
     length 0.846859   
     axis -90 -7.62852e-016 -20   XYZ
    dof rx
    limits (-90.0 20.0)
  end
  begin
     id 11 
     name lowerback
     direction -0.00119603 0.996364 -0.0851956   
     length 1.67242   
     axis 0 0 0   XYZ
    dof rx ry rz
    limits (-20.0 45.0)
           (-30.0 30.0)
           (-30.0 30.0)
  end
  begin
     id 12 
     name upperback
     direction -0.00531001 0.998318 0.0577248   
     length 1.64819   
     axis 0 0 0   XYZ
    dof rx ry rz
    limits (-20.0 45.0)
           (-30.0 30.0)
           (-30.0 30.0)
  end
  begin
     id 13 
     name thorax
     direction -0.00653676 0.995132 0.0983291   
     length 1.67429   
     axis 0 0 0   XYZ
    dof rx ry rz
    limits (-20.0 45.0)
           (-30.0 30.0)
           (-30.0 30.0)
  end
  begin
     id 14 
     name lowerneck
     direction 0.0141424 0.999886 0.00525412   
     length 1.59623   
     axis 0 0 0   XYZ
    dof rx ry rz
    limits (-20.0 45.0)
           (-30.0 30.0)
           (-30.0 30.0)
  end
  begin
     id 15 
     name upperneck
     direction -0.0640064 0.987178 -0.146232   
     length 1.59576   
     axis 0 0 0   XYZ
    dof rx ry rz
    limits (-20.0 45.0)
           (-30.0 30.0)
           (-30.0 30.0)
  end
  begin
     id 16
     name head
     direction -0.0222942 0.998496 -0.0500859  
     length 1.60959  
     axis 0 0 0   XYZ
    dof rx ry rz
    limits (-20.0 45.0)
           (-30.0 30.0)
           (-30.0 30.0)
  end
  begin
     id 17 
     name lclavicle
     direction 0.908549 0.392612 0.142806  
     length 2.80649  
     axis 0 0 0   XYZ
    dof ry rz
    limits (-20.0 10.0)
           (0.0 20.0)
  end
  begin
     id 18 
     name lhumerus
     direction 1 -4.48968e-011 1.08832e-028   
     length 4.2884   
     axis -180 -30 -90   XYZ
    dof rx ry rz
    limits (-60.0 90.0)
           (-90.0 90.0)
           (-90.0 90.0)
  end
  begin
     id 19
     name lradius
     direction 1 -4.48952e-011 -3.02642e-028   
     length 3.06552   
     axis -180 -30 -90   XYZ
    dof rx
    limits (-10.0 170.0)
  end
  begin
     id 20
     name lwrist
     direction 1 -4.49014e-011 1.58672e-027   
     length 1.53276   
     axis -1.65735e-015 90 90   XYZ
    dof ry
    limits (-180.0 0.0)
 end
  begin
     id 21 
     name lhand
     direction 1 -4.48928e-011 3.17344e-027   
     length 0.753045   
     axis -2.02492e-015 90 90   XYZ
    dof rx rz
    limits (-90.0 90.0)
           (-45.0 45.0)
  end
  begin
     id 22 
     name lfingers
     direction 1 -4.48958e-011 6.34687e-027   
     length 0.607124   
     axis -4.04985e-015 90 90   XYZ
    dof rx
    limits (0.0 90.0)
  end
  begin
     id 23
     name lthumb
     direction 0.707107 -6.34905e-011 0.707107   
     length 0.871712   
     axis -90 45 2.85299e-015   XYZ
    dof rx rz
    limits (-45.0 45.0)
           (-45.0 45.0)
  end
  begin
     id 24 
     name rclavicle
     direction -0.885098 0.45949 0.0739604   
     length 2.9478  
     axis 0 0 0   XYZ 
    dof ry rz
    limits (-10.0 20.0)
           (-20.0 0.0)
  end
  begin
     id 25 
     name rhumerus
     direction -1 -4.4898e-011 -2.61739e-027  
     length 4.52172   
     axis -180 30 90   XYZ
    dof rx ry rz
    limits (-90.0 60.0)
           (-90.0 90.0)
           (-90.0 90.0)
  end
  begin
     id 26 
     name rradius
     direction -1 -4.48945e-011 9.02552e-028   
     length 2.8914   
     axis -180 30 90   XYZ
    dof rx
    limits (-10.0 170.0)
  end
  begin
     id 27 
     name rwrist
     direction -1 -4.49018e-011 1.58672e-027   
     length 1.4457   
     axis -1.65735e-015 -90 -90   XYZ
    dof ry
    limits (-180.0 0.0)
  end
  begin
     id 28
     name rhand
     direction -1 -4.48825e-011 3.17344e-027   
     length 0.680541   
     axis -2.02492e-015 -90 -90   XYZ
    dof rx rz
    limits (-90.0 90.0)
           (-45.0 45.0)
  end
  begin
     id 29
     name rfingers
     direction -1 -4.49067e-011 6.34687e-027   
     length 0.54867   
     axis -4.04985e-015 -90 -90   XYZ
    dof rx
    limits (0.0 90.0)
  end
  begin
     id 30
     name rthumb
     direction -0.707107 -6.34833e-011 0.707107   
     length 0.787783   
     axis -90 -45 -2.85299e-015   XYZ
    dof rx rz
    limits (-45.0 45.0)
           (-45.0 45.0)
  end
:hierarchy
  begin
    root lhipjoint rhipjoint lowerback
    lhipjoint lfemur
    lfemur ltibia
    ltibia lfoot
    lfoot ltoes
    rhipjoint rfemur
    rfemur rtibia
    rtibia rfoot
    rfoot rtoes
    lowerback upperback
    upperback thorax
    thorax lowerneck lclavicle rclavicle
    lowerneck upperneck
    upperneck head
    lclavicle lhumerus
    lhumerus lradius
    lradius lwrist
    lwrist lhand lthumb
    lhand lfingers
    rclavicle rhumerus
    rhumerus rradius
    rradius rwrist
    rwrist rhand rthumb
    rhand rfingers
  end

#!OML:ASF E:\emotionWalksFemale\Project 1\Capture day 1\Session 1\Female1.ASF
:FULLY-SPECIFIED
:DEGREES
28
root 7.11559 15.2709 41.2924 178.991 2.21767 -180.762
lowerback 8.00421 1.47971 -1.02854
upperback -4.0679 1.9136 -0.121681
thorax -8.83704 1.0109 0.147814
lowerneck -5.29659 -3.07867 -7.9174
upperneck 10.8999 -4.74734 8.89609
head 4.51405 -2.31888 3.77198
rclavicle -1.61264e-014 -1.35422e-015
rhumerus -45.2501 4.59972 -85.5252
rradius 36.0459
rwrist 10.1238
rhand -2.24631 -54.697
rfingers 7.12502
rthumb 23.4371 -83.2896
lclavicle -1.61264e-014 -1.35422e-015
lhumerus -44.1464 -3.99533 85.8917
lradius 35.9279
lwrist -13.2753
lhand -5.29146 -33.8559
lfingers 7.12502
lthumb 20.5134 -4.91968
rfemur -23.1765 4.67867 18.4768
rtibia 58.4795
rfoot -13.6239 -20.4132
rtoes -4.16529
lfemur 0.389943 -20.5718 -31.1426
ltibia 18.3205
lfoot -24.8891 21.1072
ltoes -28.3513
29
root 7.11033 15.2761 41.2709 178.979 2.15401 -180.659
lowerback 8.13801 1.46172 -0.929433
upperback -4.07201 1.89604 -0.151919
thorax -8.91529 0.994858 0.0590985
lowerneck -5.16712 -3.10534 -7.82464
upperneck 10.6885 -4.79508 8.98058
head 4.43189 -2.33785 3.78145
rclavicle -2.6867e-016 -2.13694e-015
rhumerus -45.4445 4.37454 -85.4369
rradius 35.8303
rwrist 10.3712
rhand -2.67343 -53.4398
rfingers 7.12502
rthumb 23.0274 -82.0842
lclavicle -2.6867e-016 -2.13694e-015
lhumerus -44.2296 -4.30457 85.8287
lradius 35.8821
lwrist -13.409
lhand -5.05511 -33.6987
lfingers 7.12502
lthumb 20.7405 -4.7871
rfemur -23.9525 4.35772 18.7173
rtibia 59.357
rfoot -13.2592 -20.5942
rtoes -5.08035
lfemur 0.66845 -20.562 -31.0977
ltibia 17.9941
lfoot -24.6007 21.1673
ltoes -27.4494
30
root 7.10628 15.2833 41.2472 178.984 2.01079 -180.629
lowerback 8.19128 1.40526 -0.951959
upperback -4.04162 1.81416 -0.163783
thorax -8.91286 0.955063 0.0713276
lowerneck -5.22352 -3.08946 -8.08104
upperneck 10.6779 -4.81015 9.45301
head 4.45555 -2.33394 3.97057
rclavicle -3.67876e-014 -2.16178e-015
rhumerus -45.6579 4.28881 -85.4584
rradius 35.873
rwrist 10.5153
rhand -2.62626 -54.0753
rfingers 7.12502
rthumb 23.0726 -82.714
lclavicle -3.67876e-014 -2.16178e-015
lhumerus -44.2669 -4.60914 85.8017
lradius 35.8085
lwrist -13.4584
lhand -5.11719 -33.7455
lfingers 7.12502
lthumb 20.6808 -4.82738
rfemur -24.7153 3.90104 18.8718
rtibia 60.134
rfoot -13.5196 -20.3436
rtoes -4.32986
lfemur 0.971008 -20.6842 -31.1506
ltibia 17.6288
lfoot -24.2375 21.3685
ltoes -27.3404
31
root 7.10269 15.2889 41.2232 179.092 1.8742 -180.7
lowerback 8.11727 1.33004 -1.21557
upperback -4.02479 1.68951 -0.0794905
thorax -8.86066 0.912775 0.330558
lowerneck -5.4835 -3.07244 -8.32784
upperneck 10.8728 -4.78016 9.61429
head 4.56522 -2.31349 4.06157
rclavicle -1.24539e-014 -1.93194e-015
rhumerus -45.641 4.24444 -85.3694
rradius 35.7793
rwrist 10.7274
rhand -2.60513 -55.0539
rfingers 7.12502
rthumb 23.0929 -83.6901
lclavicle -1.24539e-014 -1.93194e-015
lhumerus -44.2081 -4.50027 85.8422
lradius 35.6275
lwrist -13.8628
lhand -5.15845 -33.5908
lfingers 7.12502
lthumb 20.6412 -4.66835
rfemur -25.6067 3.47105 18.9323
rtibia 60.8261
rfoot -13.8784 -19.9823
rtoes -3.39277
lfemur 1.13477 -20.8061 -31.2637
ltibia 17.2839
lfoot -23.8911 21.5365
ltoes -28.7818
32
root 7.09929 15.2912 41.2005 179.08 1.76411 -180.634
lowerback 8.14744 1.27261 -1.34105
upperback -3.95541 1.60553 0.0700374
thorax -8.80987 0.882217 0.573345
lowerneck -5.58078 -3.09138 -8.3378
upperneck 10.8599 -4.74572 9.32613
head 4.56909 -2.30275 3.97356
rclavicle 1.68532e-014 2.31087e-015
rhumerus -45.5874 4.35886 -85.2418
rradius 35.5536
rwrist 10.5823
rhand -2.89763 -54.5859
rfingers 7.12502
rthumb 22.8122 -83.2569
lclavicle 1.68532e-014 2.31087e-015
lhumerus -44.2617 -4.33398 85.9173
lradius 35.5944
lwrist -14.384
lhand -5.26815 -33.6341
lfingers 7.12502
lthumb 20.5358 -4.70019
rfemur -26.3024 3.18561 19.1909
rtibia 61.3995
rfoot -14.1067 -20.0133
rtoes -3.38088
lfemur 1.42295 -20.8535 -31.2615
ltibia 16.9559
lfoot -23.6961 21.7013
ltoes -29.9652
33
root 7.09515 15.2894 41.178 179.024 1.57237 -180.567
lowerback 8.29568 1.23502 -1.35986
upperback -3.90739 1.55145 0.121767
thorax -8.84554 0.856987 0.644931
lowerneck -5.59615 -3.15647 -8.26659
upperneck 10.7802 -4.81183 9.20058
head 4.54945 -2.33556 3.91748
rclavicle 5.02552e-015 2.41026e-015
rhumerus -45.6316 4.39841 -85.2381
rradius 35.2543
rwrist 10.1709
rhand -3.53758 -53.8899
rfingers 7.12502
rthumb 22.198 -82.6353
lclavicle 5.02552e-015 2.41026e-015
lhumerus -44.4831 -4.73769 86.0979
lradius 35.7327
lwrist -14.3752
lhand -5.83545 -34.0387
lfingers 7.12502
lthumb 19.9905 -5.04697
rfemur -26.898 2.89907 19.4409
rtibia 61.8353
rfoot -14.5284 -20.182
rtoes -2.77291
lfemur 1.74141 -20.9862 -31.2834
ltibia 16.6663
lfoot -23.5799 21.8074
ltoes -29.8104
34
root 7.08947 15.2877 41.1471 178.977 1.37599 -180.676
lowerback 8.40776 1.21821 -1.49113
upperback -3.91203 1.50562 0.0581987
thorax -8.91728 0.840212 0.656111
lowerneck -5.45846 -3.20275 -8.18194
upperneck 10.698 -4.89326 9.21893
head 4.50692 -2.37657 3.90546
rclavicle -1.43964e-015 3.55328e-015
rhumerus -45.8827 4.17742 -85.2062
rradius 34.9484
rwrist 10.151
rhand -4.08653 -53.3767
rfingers 7.12502
rthumb 21.6709 -82.1838
lclavicle -1.43964e-015 3.55328e-015
lhumerus -44.745 -5.33612 86.3082
lradius 35.8651
lwrist -14.2503
lhand -6.31698 -34.204
lfingers 7.12502
lthumb 19.5276 -5.16466
rfemur -27.474 2.56955 19.482
rtibia 62.0986
rfoot -14.7212 -20.4025
rtoes -2.94741
lfemur 2.02592 -21.1525 -31.5324
ltibia 16.5035
lfoot -23.3981 21.9494
ltoes -29.7365
35
root 7.08184 15.2871 41.1094 178.873 1.3619 -180.751
lowerback 8.44892 1.22956 -1.60949
upperback -3.85796 1.50367 0.0608553
thorax -8.88617 0.84469 0.725776
lowerneck -5.41624 -3.2392 -8.25912
upperneck 10.701 -4.94853 9.27892
head 4.50886 -2.40573 3.9341
rclavicle 4.70561e-015 -1.73937e-016
rhumerus -46.0324 4.01207 -85.0675
rradius 34.6442
rwrist 10.3442
rhand -4.13474 -53
rfingers 7.12502
rthumb 21.6246 -81.8125
lclavicle 4.70561e-015 -1.73937e-016
lhumerus -44.9729 -5.41002 86.436
lradius 36.0849
lwrist -14.47
lhand -6.40845 -33.9437
lfingers 7.12502
lthumb 19.4397 -4.89544
rfemur -27.9617 2.31952 19.5531
rtibia 62.1825
rfoot -14.799 -20.3684
rtoes -3.21429
lfemur 2.35764 -21.2824 -31.818
ltibia 16.415
lfoot -23.1547 22.4196
ltoes -30.4549
36
root 7.07863 15.2854 41.0863 178.95 1.27107 -180.663
lowerback 8.49052 1.20181 -1.60328
upperback -3.82739 1.46829 0.10377
thorax -8.87737 0.827568 0.773217
lowerneck -5.60595 -3.28017 -8.3076
upperneck 10.7719 -5.00196 9.37093
head 4.57087 -2.42374 3.96506
rclavicle 2.01269e-015 -1.963e-015
rhumerus -46.0389 3.85383 -84.9819
rradius 34.4773
rwrist 10.4391
rhand -3.94898 -53.1226
rfingers 7.12502
rthumb 21.803 -81.9145
lclavicle 2.01269e-015 -1.963e-015
lhumerus -44.4081 -5.21768 86.4026
lradius 35.2544
lwrist -14.843
lhand -6.70686 -34.09
lfingers 7.12502
lthumb 19.1527 -5.01304
rfemur -28.6321 2.06288 19.8473
rtibia 62.0923
rfoot -14.9658 -20.3379
rtoes -3.6634
lfemur 2.39467 -21.2134 -31.7444
ltibia 16.2676
lfoot -22.5637 22.8377
ltoes -32.5044
